<?xml version="1.0" encoding="utf-8"?><svg viewBox="0 0 176 83" xmlns="http://www.w3.org/2000/svg" xmlns:xlink="http://www.w3.org/1999/xlink"><style>:root>svg{display:none}:root>svg:target{display:block}</style><svg viewBox="0 0 73 59" id="advantages-image-1" xmlns="http://www.w3.org/2000/svg"><path d="M5.065 51.835C-8.858 36.535 9.79 3.668 21.859.93c12.102-2.768 39.354 27.313 35.495 39.008-3.861 11.758-38.338 27.23-52.29 11.898z"/><path d="M5.065 51.835C-8.858 36.535 9.79 3.668 21.859.93c12.102-2.768 39.354 27.313 35.495 39.008-3.861 11.758-38.338 27.23-52.29 11.898z" fill-opacity=".5"/><path d="M27.4 48.572c-1.69-.117-3.24-.573-4.65-1.369-1.375-.827-2.541-2.022-3.499-3.587-.922-1.594-1.603-3.556-2.042-5.883-.437-2.36-.546-5.131-.328-8.313.22-3.18.705-5.894 1.459-8.14.756-2.278 1.699-4.127 2.829-5.548 1.162-1.418 2.48-2.426 3.953-3.024 1.506-.596 3.104-.835 4.794-.72 1.69.117 3.223.572 4.6 1.366 1.377.794 2.528 1.972 3.453 3.533.927 1.529 1.593 3.456 2 5.781.439 2.328.549 5.082.33 8.263-.218 3.181-.706 5.91-1.462 8.19-.72 2.247-1.647 4.098-2.779 5.551-1.132 1.454-2.435 2.496-3.91 3.127-1.475.631-3.058.889-4.748.773zm.22-3.93c1.127.077 2.138-.103 3.034-.541.896-.438 1.68-1.2 2.355-2.285.674-1.086 1.222-2.53 1.646-4.332.459-1.833.78-4.074.962-6.725.182-2.651.187-4.898.014-6.741-.17-1.876-.516-3.398-1.035-4.566-.519-1.168-1.192-2.03-2.02-2.586-.826-.556-1.803-.873-2.93-.95-1.127-.078-2.155.101-3.084.537-.895.437-1.697 1.198-2.404 2.281-.674 1.086-1.24 2.545-1.699 4.378-.424 1.802-.726 4.029-.909 6.68-.182 2.65-.188 4.914-.017 6.79.206 1.845.568 3.352 1.087 4.52.52 1.167 1.192 2.03 2.02 2.585.86.559 1.854.877 2.98.955zM51.31 29.99l1.1-16.005 8.4.578c3.712.255 6.54 1.265 8.482 3.03 1.976 1.767 2.851 4.291 2.626 7.572-.117 1.69-.515 3.127-1.196 4.312a7.646 7.646 0 01-2.694 2.861c-1.112.69-2.428 1.182-3.947 1.477-1.516.262-3.185.33-5.008.205l-3.33-.23-.29 4.226 10.388.714-.24 3.48-10.388-.715-.58 8.45-4.673-.322.581-8.45-4.076-.28.24-3.479 4.075.28.29-4.225-4.075-.28.24-3.48 4.075.281zm5.496-11.658l-.823 11.98 3.33.228c2.419.167 4.292-.204 5.62-1.111 1.362-.939 2.117-2.468 2.263-4.59.134-1.954-.33-3.434-1.393-4.44-1.027-1.036-2.784-1.64-5.269-1.81l-3.728-.257z"/><defs><linearGradient id="aa" x1="5.079" y1="51.851" x2="45.581" y2="14.997" gradientUnits="userSpaceOnUse"><stop stop-color="#FF5C4D"/><stop offset=".25" stop-color="#EB469F"/><stop offset=".72" stop-color="#8341EF"/><stop offset="1" stop-color="#3F68F9"/></linearGradient></defs></svg><svg viewBox="0 0 94 83" id="advantages-image-2" xmlns="http://www.w3.org/2000/svg"><path d="M24.416 32.82c0-16.427 27.909-25.765 36.278-20.923 8.404 4.841 8.335 37.073 0 41.88-8.369 4.842-36.278-4.496-36.278-20.957z"/><path d="M24.416 32.82c0-16.427 27.909-25.765 36.278-20.923 8.404 4.841 8.335 37.073 0 41.88-8.369 4.842-36.278-4.496-36.278-20.957z" fill-opacity=".5"/><path d="M63.841 67.506c-4.288 0-8.646-2.974-8.646-8.646 0-3.527 1.902-6.432 4.807-7.816L51.6 19.401c-4.634-.07-8.542.034-12.174.31l-.276-3.457c4.08-.312 8.438-.416 13.798-.312l1.315.035 9.06 34.237c5.05-.242 9.13 3.528 9.13 8.646.035 4.946-3.7 8.646-8.61 8.646zm0-13.833c-3.009 0-5.187 2.178-5.187 5.187 0 3.839 2.8 5.188 5.187 5.188 3.009 0 5.188-2.18 5.188-5.188 0-3.009-2.18-5.187-5.188-5.187zM19.16 67.506c-4.289 0-8.646-2.974-8.646-8.646 0-4.945 3.7-8.646 8.646-8.646 4.322 0 7.712 2.87 8.472 6.917h9.96c3.977 0 5.845-.76 8.715-3.458a94.498 94.498 0 006.986-7.436l2.663 2.214a89.942 89.942 0 01-7.262 7.712c-3.528 3.354-6.225 4.426-11.102 4.426h-9.925c-.76 4.047-4.15 6.917-8.508 6.917zm0-13.833c-3.01 0-5.188 2.178-5.188 5.187 0 3.839 2.801 5.188 5.188 5.188 3.008 0 5.187-2.18 5.187-5.188 0-3.009-2.179-5.187-5.188-5.187zm43.747-29.638H60.66a2.28 2.28 0 01-2.283-2.283c0-1.245 1.003-2.248 2.282-2.248h2.248v4.53zm15.217-7.619L67.692 5.533l1.726-1.793 10.457 10.884-1.75 1.792zm-8.706 0l-1.726-1.792L78.175 3.74l1.7 1.793-10.457 10.883zm15.448-5.818V7.792H87.2c.575 0 1.074-.095 1.497-.285.423-.208.753-.503.99-.884.237-.398.356-.874.356-1.428 0-.52-.119-.961-.356-1.325-.22-.363-.55-.64-.99-.831-.44-.208-.981-.312-1.624-.312a6.02 6.02 0 00-2.284.442c-.711.277-1.473.736-2.285 1.377V1.532a7.966 7.966 0 011.472-.857 7.066 7.066 0 011.65-.493A9.487 9.487 0 0187.531 0c1.184 0 2.208.208 3.071.623.863.416 1.531.996 2.005 1.74.474.745.711 1.602.711 2.572a4.16 4.16 0 01-.33 1.688 3.98 3.98 0 01-.863 1.273 4.257 4.257 0 01-1.218.831 4.557 4.557 0 01-1.396.39v-.104c.575.052 1.125.19 1.65.416a4.611 4.611 0 011.446.883c.423.38.753.84.99 1.377.254.536.38 1.151.38 1.844 0 1.125-.278 2.112-.837 2.96-.558.832-1.337 1.481-2.335 1.949-.998.45-2.166.675-3.503.675-.677 0-1.328-.06-1.954-.182a7.929 7.929 0 01-1.751-.493 8.484 8.484 0 01-1.498-.857v-3.013c.795.623 1.59 1.082 2.386 1.376.795.295 1.65.442 2.564.442.778 0 1.43-.121 1.954-.364.525-.242.914-.58 1.168-1.013.27-.45.406-.987.406-1.61 0-.624-.127-1.143-.381-1.559-.254-.415-.635-.727-1.142-.935-.508-.208-1.16-.312-1.955-.312h-2.233z"/><defs><linearGradient id="ba" x1="24.416" y1="32.837" x2="66.971" y2="32.837" gradientUnits="userSpaceOnUse"><stop stop-color="#FF5C4D"/><stop offset=".25" stop-color="#EB469F"/><stop offset=".72" stop-color="#8341EF"/><stop offset="1" stop-color="#3F68F9"/></linearGradient></defs></svg><svg viewBox="0 0 83 83" id="advantages-image-3" xmlns="http://www.w3.org/2000/svg"><path d="M11.692 50.196C6.039 32.917 36.527 12.13 48.632 25.008c8.006 8.516 7.413 28.926-4.193 36.84-11.606 7.913-29.01-.226-32.747-11.652z"/><path d="M11.692 50.196C6.039 32.917 36.527 12.13 48.632 25.008c8.006 8.516 7.413 28.926-4.193 36.84-11.606 7.913-29.01-.226-32.747-11.652z" fill-opacity=".5"/><path d="M45.329 67.881c-12.738.983-22.33-7.234-23.312-19.972-.983-12.737 7.234-22.329 19.972-23.312 5.07-.391 9.753.647 13.604 2.994 5.68 3.48 9.13 9.496 9.708 16.978.983 12.738-7.234 22.33-19.972 23.312zm-4.643-40.01c-10.183 1.438-16.393 9.226-15.577 19.8.856 11.099 8.882 17.975 19.981 17.119 11.1-.857 17.976-8.883 17.12-19.982-.5-6.462-3.419-11.648-8.248-14.572-2.904-1.767-6.393-2.648-10.184-2.604l1.682 21.796-14.13 1.09-.254-3.308 11.037-.851-1.427-18.489zm25.42 4.569l-1.781-2.537 4.101-2.867 1.782 2.537-4.102 2.867zm-6.658-7.293L56.86 23.45l5.014-7.572 2.588 1.698-5.014 7.571zM49.15 20.686l-3.099-.259c.05-.564-.145-1.077-.616-1.538-1.687-1.705-6.386-1.342-7.791.6-.364.526-.478 1.064-.345 1.582l-3.022.731c-.36-1.434-.04-2.92.862-4.14 1.236-1.713 3.512-2.853 6.047-3.048 2.566-.199 4.959.581 6.444 2.084 1.11 1.096 1.655 2.515 1.52 3.988z"/><defs><linearGradient id="ca" x1="52.756" y1="31.262" x2="13.658" y2="54.284" gradientUnits="userSpaceOnUse"><stop stop-color="#FF5C4D"/><stop offset=".25" stop-color="#EB469F"/><stop offset=".72" stop-color="#8341EF"/><stop offset="1" stop-color="#3F68F9"/></linearGradient></defs></svg><svg viewBox="0 0 83 83" id="advantages-image-4" xmlns="http://www.w3.org/2000/svg"><path d="M.86 53.543C-6.162 30.14 31.701 1.985 46.734 19.429c9.942 11.533 9.206 39.176-5.207 49.894C27.114 80.04 5.5 69.018.859 53.543z"/><path d="M.86 53.543C-6.162 30.14 31.701 1.985 46.734 19.429c9.942 11.533 9.206 39.176-5.207 49.894C27.114 80.04 5.5 69.018.859 53.543z" fill-opacity=".5"/><path d="M22.802 40.817a7.737 7.737 0 017.033-8.381l30.344-2.655a7.737 7.737 0 018.381 7.033l.86 9.824a7.737 7.737 0 01-7.033 8.382l-30.344 2.655a7.737 7.737 0 01-8.382-7.033l-.86-9.825z"/><defs><linearGradient id="da" x1="51.856" y1="27.898" x2="1.225" y2="55.236" gradientUnits="userSpaceOnUse"><stop stop-color="#FF5C4D"/><stop offset=".25" stop-color="#EB469F"/><stop offset=".72" stop-color="#8341EF"/><stop offset="1" stop-color="#3F68F9"/></linearGradient></defs></svg><svg viewBox="0 0 27 24" id="left" xmlns="http://www.w3.org/2000/svg"><path d="M24.75 10.5a1.5 1.5 0 010 3v-3zM1.19 13.06a1.5 1.5 0 010-2.12l9.545-9.547a1.5 1.5 0 112.122 2.122L4.37 12l8.486 8.485a1.5 1.5 0 11-2.122 2.122L1.19 13.06zm23.56.44H2.25v-3h22.5v3z"/></svg><svg viewBox="0 0 27 24" id="right" xmlns="http://www.w3.org/2000/svg"><path d="M2.25 10.5a1.5 1.5 0 000 3v-3zm23.56 2.56a1.5 1.5 0 000-2.12l-9.545-9.547a1.5 1.5 0 10-2.122 2.122L22.63 12l-8.486 8.485a1.5 1.5 0 102.122 2.122l9.546-9.546zm-23.56.44h22.5v-3H2.25v3z"/></svg><svg viewBox="0 0 176 52" id="yandex-go-logo" xmlns="http://www.w3.org/2000/svg"><path d="M139.016.936h19.462A17.526 17.526 0 01176 18.452V33.55a17.502 17.502 0 01-5.132 12.386 17.52 17.52 0 01-12.39 5.13h-19.262a17.523 17.523 0 01-16.188-10.813 17.502 17.502 0 01-1.334-6.703V18.452c0-9.676 7.642-17.516 17.322-17.516z"/><path d="M143.778 29.278v-.85h-5.126V24.64h9.994v4.505c0 7.09-3.387 11.21-9.793 11.21-6.606 0-10.443-5.204-10.443-14.38 0-8.947 4.187-14.425 11.869-14.425 2.902 0 5.405.768 6.773 1.77v3.898a12.587 12.587 0 00-6.539-1.887c-5.038 0-7.174 3.42-7.174 10.644 0 7.006 1.769 10.59 5.605 10.59 3.665.019 4.834-2.817 4.834-7.287zm25.593.533c0 6.808-3.67 10.56-8.948 10.56-5.277 0-8.947-3.752-8.947-10.509 0-6.807 3.67-10.56 8.947-10.56 5.278 0 8.948 3.737 8.948 10.51zm-4.956 0c0-4.67-1.335-6.721-3.986-6.721-2.651 0-3.988 2.05-3.988 6.773 0 4.67 1.335 6.723 3.988 6.723s3.986-2.069 3.986-6.775zM13.746 15.75h-2.191c-3.98 0-6.077 2.018-6.077 5.004 0 3.387 1.45 4.955 4.437 6.973l2.452 1.653-7.09 10.59H0l6.356-9.475C2.686 27.877.634 25.342.634 21.022c0-5.405 3.748-9.059 10.87-9.059h7.088v28.01H13.73V15.75h.016zm24.89 3.954v20.268h-4.788v-8.458h-6.407v8.458h-4.788V19.704h4.788v8.023h6.407v-8.023h4.788zm21.636 24.89h-4.437v-4.638h-10.76v4.638h-4.438v-8.416h1.501c1.686-3.387 2.02-9.793 2.02-14.747v-1.735h13.977v16.482h2.137v8.416zM53.348 23.49h-5.07v.6c0 3.503-.366 9.024-1.703 12.094h6.773V23.491zM71.03 40.355c-6.121 0-9.592-3.42-9.592-10.475 0-6.123 2.786-10.59 8.626-10.59 4.787 0 7.89 2.667 7.89 9.708v2.534h-11.56c.198 3.388 1.533 5.038 5.037 5.038 2.336 0 4.837-.883 6.322-1.9v3.918c-1.4.968-3.654 1.767-6.723 1.767zm-4.637-12.361h6.689v-.398c0-2.535-.73-4.503-3.104-4.503-2.284-.02-3.451 1.681-3.585 4.9zm19.584 2.02v9.958h-4.804V19.704h4.804v9.341l6.782-9.341h4.839l-6.773 9.341 7.69 10.91h-5.448l-7.09-9.942zm12.262-.167c0-6.174 3.186-10.56 9.312-10.56 2.374 0 4.154.4 5.155.966v4.072c-.968-.6-2.787-1.252-4.638-1.252-3.137 0-4.872 2.253-4.872 6.657 0 4.187 1.419 6.855 4.839 6.855 2.018 0 3.469-.517 4.671-1.368v3.904c-1.169.851-2.739 1.251-4.956 1.251-6.409-.017-9.513-3.752-9.513-10.525h.002z"/></svg></svg>